# xmcd CD database file
#
# Track frame offsets:
#	150
#	20680
#	36972
#	58670
#	83952
#	102710
#	131870
#	147865
#	162967
#	180972
#	200447
#	216975
#
# Disc length: 3047 seconds
#
# Revision: 1
# Processed by: cddbd v1.5.2PL0 Copyright (c) Steve Scherf et al.
# Submitted via: CDex 1.51
#
DISCID=b20be50c
DTITLE=Walter Jackson - It's Cool
DYEAR=1900
DGENRE=
TTITLE0=It's Cool
TTITLE1=Magic Man
TTITLE2=Feelings
TTITLE3=Tell Me When It Hurts
TTITLE4=I Won't Remember Ever Loving You
TTITLE5=Someone Saved My Life Tonight
TTITLE6=Got To Find Me An Angel
TTITLE7=Come To Me
TTITLE8=Open Your Heart
TTITLE9=Unchained Melody
TTITLE10=At Last
TTITLE11=I Got It Bad Feelin' Good
EXTD=
EXTT0=
EXTT1=
EXTT2=
EXTT3=
EXTT4=
EXTT5=
EXTT6=
EXTT7=
EXTT8=
EXTT9=
EXTT10=
EXTT11=
PLAYORDER=
